<?xml version="1.0" encoding="UTF-8" standalone="no"?>
<!DOCTYPE svg PUBLIC "-//W3C//DTD SVG 1.1//EN"
 "http://www.w3.org/Graphics/SVG/1.1/DTD/svg11.dtd">
<!-- Generated by graphviz version 14.1.2 (20260124.0452)
 -->
<!-- Title: network Pages: 1 -->
<svg width="1312pt" height="1056pt"
 viewBox="0.00 0.00 1312.00 1056.00" xmlns="http://www.w3.org/2000/svg" xmlns:xlink="http://www.w3.org/1999/xlink">
<g id="graph0" class="graph" transform="scale(1 1) rotate(0) translate(4 1052)">
<title>network</title>
<polygon fill="white" stroke="none" points="-4,4 -4,-1052 1307.75,-1052 1307.75,4 -4,4"/>
<g id="clust1" class="cluster">
<title>cluster_loopback</title>
<polygon fill="#e8f5e9" stroke="black" points="447.5,-625 447.5,-1040 817.88,-1040 817.88,-625 447.5,-625"/>
<text xml:space="preserve" text-anchor="middle" x="632.69" y="-1022.7" font-family="Helvetica,sans-Serif" font-size="14.00">Loopback — local hub + managed Core/CLN</text>
</g>
<g id="clust2" class="cluster">
<title>cluster_public</title>
<polygon fill="#e3f2fd" stroke="black" points="929.25,-551 929.25,-836 1295.75,-836 1295.75,-551 929.25,-551"/>
<text xml:space="preserve" text-anchor="middle" x="1112.5" y="-818.7" font-family="Helvetica,sans-Serif" font-size="14.00">Public — hub.fabric.pub</text>
</g>
<g id="clust3" class="cluster">
<title>cluster_scanned</title>
<polygon fill="#fff3e0" stroke="black" points="48.88,-8 48.88,-315 802.88,-315 802.88,-8 48.88,-8"/>
<text xml:space="preserve" text-anchor="middle" x="425.88" y="-297.7" font-family="Helvetica,sans-Serif" font-size="14.00">Homestead — tri&#45;vantage nmap (see header LAST_SCAN)</text>
</g>
<g id="clust4" class="cluster">
<title>cluster_lan</title>
<polygon fill="#fff8e1" stroke="black" points="670,-323 670,-534 1097.38,-534 1097.38,-323 670,-323"/>
<text xml:space="preserve" text-anchor="middle" x="883.69" y="-516.7" font-family="Helvetica,sans-Serif" font-size="14.00">LAN services (example — martindale)</text>
</g>
<g id="clust5" class="cluster">
<title>cluster_placeholders</title>
<polygon fill="#fce4ec" stroke="black" points="0,-576 0,-787 243.25,-787 243.25,-576 0,-576"/>
<text xml:space="preserve" text-anchor="middle" x="121.62" y="-769.7" font-family="Helvetica,sans-Serif" font-size="14.00">Placeholders — BitcoinHome settings</text>
</g>
<g id="clust6" class="cluster">
<title>cluster_meta</title>
<polygon fill="#f5f5f5" stroke="black" points="636.25,-542 636.25,-617 831.75,-617 831.75,-542 636.25,-542"/>
<text xml:space="preserve" text-anchor="middle" x="734" y="-599.7" font-family="Helvetica,sans-Serif" font-size="14.00">Coordination</text>
</g>
<!-- localhost -->
<g id="node1" class="node">
<title>localhost</title>
<path fill="#c8e6c9" stroke="black" d="M548,-838C548,-838 467.5,-838 467.5,-838 461.5,-838 455.5,-832 455.5,-826 455.5,-826 455.5,-814 455.5,-814 455.5,-808 461.5,-802 467.5,-802 467.5,-802 548,-802 548,-802 554,-802 560,-808 560,-814 560,-814 560,-826 560,-826 560,-832 554,-838 548,-838"/>
<text xml:space="preserve" text-anchor="middle" x="507.75" y="-821.75" font-family="Helvetica,sans-Serif" font-size="10.00">localhost / 127.0.0.1</text>
<text xml:space="preserve" text-anchor="middle" x="507.75" y="-810.5" font-family="Helvetica,sans-Serif" font-size="10.00">(loopback)</text>
</g>
<!-- http_local -->
<g id="node2" class="node">
<title>http_local</title>
<path fill="#a5d6a7" stroke="black" d="M797.88,-873C797.88,-873 670.12,-873 670.12,-873 664.12,-873 658.12,-867 658.12,-861 658.12,-861 658.12,-849 658.12,-849 658.12,-843 664.12,-837 670.12,-837 670.12,-837 797.88,-837 797.88,-837 803.88,-837 809.88,-843 809.88,-849 809.88,-849 809.88,-861 809.88,-861 809.88,-867 803.88,-873 797.88,-873"/>
<text xml:space="preserve" text-anchor="middle" x="734" y="-856.75" font-family="Helvetica,sans-Serif" font-size="10.00">HTTP :8080 (default)</text>
<text xml:space="preserve" text-anchor="middle" x="734" y="-845.5" font-family="Helvetica,sans-Serif" font-size="10.00">SPA, REST, WebSocket bridge</text>
</g>
<!-- localhost&#45;&gt;http_local -->
<g id="edge1" class="edge">
<title>localhost&#45;&gt;http_local</title>
<path fill="none" stroke="#555555" d="M560.48,-828.07C586.06,-832.07 617.61,-836.99 646.71,-841.53"/>
<polygon fill="#555555" stroke="#555555" points="645.81,-844.93 656.23,-843.02 646.89,-838.02 645.81,-844.93"/>
<text xml:space="preserve" text-anchor="middle" x="607.75" y="-838.7" font-family="Helvetica,sans-Serif" font-size="9.00">bind</text>
</g>
<!-- fabric_local -->
<g id="node3" class="node">
<title>fabric_local</title>
<path fill="#a5d6a7" stroke="black" d="M768.25,-737C768.25,-737 699.75,-737 699.75,-737 693.75,-737 687.75,-731 687.75,-725 687.75,-725 687.75,-713 687.75,-713 687.75,-707 693.75,-701 699.75,-701 699.75,-701 768.25,-701 768.25,-701 774.25,-701 780.25,-707 780.25,-713 780.25,-713 780.25,-725 780.25,-725 780.25,-731 774.25,-737 768.25,-737"/>
<text xml:space="preserve" text-anchor="middle" x="734" y="-720.75" font-family="Helvetica,sans-Serif" font-size="10.00">Fabric P2P :7777</text>
<text xml:space="preserve" text-anchor="middle" x="734" y="-709.5" font-family="Helvetica,sans-Serif" font-size="10.00">(FABRIC_PORT)</text>
</g>
<!-- localhost&#45;&gt;fabric_local -->
<g id="edge2" class="edge">
<title>localhost&#45;&gt;fabric_local</title>
<path fill="none" stroke="#555555" d="M543.93,-801.51C581.67,-781.68 636.25,-753 636.25,-753 636.25,-753 655.54,-746.22 676.89,-738.72"/>
<polygon fill="#555555" stroke="#555555" points="677.76,-742.12 686.03,-735.51 675.44,-735.52 677.76,-742.12"/>
<text xml:space="preserve" text-anchor="middle" x="607.75" y="-777.78" font-family="Helvetica,sans-Serif" font-size="9.00">bind</text>
</g>
<!-- btc_rpc_managed -->
<g id="node4" class="node">
<title>btc_rpc_managed</title>
<path fill="#81c784" stroke="black" d="M793,-805C793,-805 675,-805 675,-805 669,-805 663,-799 663,-793 663,-793 663,-781 663,-781 663,-775 669,-769 675,-769 675,-769 793,-769 793,-769 799,-769 805,-775 805,-781 805,-781 805,-793 805,-793 805,-799 799,-805 793,-805"/>
<text xml:space="preserve" text-anchor="middle" x="734" y="-788.75" font-family="Helvetica,sans-Serif" font-size="10.00">Bitcoin RPC :20444</text>
<text xml:space="preserve" text-anchor="middle" x="734" y="-777.5" font-family="Helvetica,sans-Serif" font-size="10.00">managed regtest (hub wallet)</text>
</g>
<!-- localhost&#45;&gt;btc_rpc_managed -->
<g id="edge3" class="edge">
<title>localhost&#45;&gt;btc_rpc_managed</title>
<path fill="none" stroke="#555555" d="M560.06,-807.09C576.84,-802.87 591.25,-799.25 591.25,-799.25 591.25,-799.25 619.83,-796.78 651.32,-794.06"/>
<polygon fill="#555555" stroke="#555555" points="651.37,-797.57 661.03,-793.22 650.77,-790.59 651.37,-797.57"/>
<text xml:space="preserve" text-anchor="middle" x="607.75" y="-800.45" font-family="Helvetica,sans-Serif" font-size="9.00">RPC</text>
</g>
<!-- btc_p2p_local -->
<g id="node5" class="node">
<title>btc_p2p_local</title>
<path fill="#81c784" stroke="black" d="M778,-669C778,-669 690,-669 690,-669 684,-669 678,-663 678,-657 678,-657 678,-645 678,-645 678,-639 684,-633 690,-633 690,-633 778,-633 778,-633 784,-633 790,-639 790,-645 790,-645 790,-657 790,-657 790,-663 784,-669 778,-669"/>
<text xml:space="preserve" text-anchor="middle" x="734" y="-652.75" font-family="Helvetica,sans-Serif" font-size="10.00">Bitcoin P2P :18444</text>
<text xml:space="preserve" text-anchor="middle" x="734" y="-641.5" font-family="Helvetica,sans-Serif" font-size="10.00">regtest (local bitcoind)</text>
</g>
<!-- localhost&#45;&gt;btc_p2p_local -->
<g id="edge4" class="edge">
<title>localhost&#45;&gt;btc_p2p_local</title>
<path fill="none" stroke="#555555" d="M526.21,-801.51C561.13,-764.54 636.25,-685 636.25,-685 636.25,-685 651.37,-679.69 669.65,-673.26"/>
<polygon fill="#555555" stroke="#555555" points="670.68,-676.61 678.95,-669.99 668.36,-670.01 670.68,-676.61"/>
<text xml:space="preserve" text-anchor="middle" x="607.75" y="-733.72" font-family="Helvetica,sans-Serif" font-size="9.00">P2P</text>
</g>
<!-- zmq_local -->
<g id="node6" class="node">
<title>zmq_local</title>
<path fill="#66bb6a" stroke="black" d="M795.25,-941C795.25,-941 672.75,-941 672.75,-941 666.75,-941 660.75,-935 660.75,-929 660.75,-929 660.75,-917 660.75,-917 660.75,-911 666.75,-905 672.75,-905 672.75,-905 795.25,-905 795.25,-905 801.25,-905 807.25,-911 807.25,-917 807.25,-917 807.25,-929 807.25,-929 807.25,-935 801.25,-941 795.25,-941"/>
<text xml:space="preserve" text-anchor="middle" x="734" y="-924.75" font-family="Helvetica,sans-Serif" font-size="10.00">ZMQ hashblock</text>
<text xml:space="preserve" text-anchor="middle" x="734" y="-913.5" font-family="Helvetica,sans-Serif" font-size="10.00">(127.0.0.1, hub&#45;managed port)</text>
</g>
<!-- localhost&#45;&gt;zmq_local -->
<g id="edge5" class="edge">
<title>localhost&#45;&gt;zmq_local</title>
<path fill="none" stroke="#555555" d="M542.92,-838.49C580.68,-858.93 636.25,-889 636.25,-889 636.25,-889 651.37,-894.31 669.65,-900.74"/>
<polygon fill="#555555" stroke="#555555" points="668.36,-903.99 678.95,-904.01 670.68,-897.39 668.36,-903.99"/>
<text xml:space="preserve" text-anchor="middle" x="607.75" y="-883.02" font-family="Helvetica,sans-Serif" font-size="9.00">ZMQ</text>
</g>
<!-- cln_local -->
<g id="node7" class="node">
<title>cln_local</title>
<path fill="#4caf50" stroke="black" d="M797.88,-1009C797.88,-1009 670.12,-1009 670.12,-1009 664.12,-1009 658.12,-1003 658.12,-997 658.12,-997 658.12,-985 658.12,-985 658.12,-979 664.12,-973 670.12,-973 670.12,-973 797.88,-973 797.88,-973 803.88,-973 809.88,-979 809.88,-985 809.88,-985 809.88,-997 809.88,-997 809.88,-1003 803.88,-1009 797.88,-1009"/>
<text xml:space="preserve" text-anchor="middle" x="734" y="-992.75" font-family="Helvetica,sans-Serif" font-size="10.00">CLN RPC</text>
<text xml:space="preserve" text-anchor="middle" x="734" y="-981.5" font-family="Helvetica,sans-Serif" font-size="10.00">(stores/lightning/hub, loopback)</text>
</g>
<!-- localhost&#45;&gt;cln_local -->
<g id="edge6" class="edge">
<title>localhost&#45;&gt;cln_local</title>
<path fill="none" stroke="#555555" d="M525.95,-838.48C560.75,-875.87 636.25,-957 636.25,-957 636.25,-957 651.37,-962.31 669.65,-968.74"/>
<polygon fill="#555555" stroke="#555555" points="668.36,-971.99 678.95,-972.01 670.68,-965.39 668.36,-971.99"/>
<text xml:space="preserve" text-anchor="middle" x="607.75" y="-943.95" font-family="Helvetica,sans-Serif" font-size="9.00">RPC</text>
</g>
<!-- hub_https -->
<g id="node8" class="node">
<title>hub_https</title>
<path fill="#90caf9" stroke="black" d="M1096.5,-805C1096.5,-805 960.5,-805 960.5,-805 954.5,-805 948.5,-799 948.5,-793 948.5,-793 948.5,-781 948.5,-781 948.5,-775 954.5,-769 960.5,-769 960.5,-769 1096.5,-769 1096.5,-769 1102.5,-769 1108.5,-775 1108.5,-781 1108.5,-781 1108.5,-793 1108.5,-793 1108.5,-799 1102.5,-805 1096.5,-805"/>
<text xml:space="preserve" text-anchor="middle" x="1028.5" y="-788.75" font-family="Helvetica,sans-Serif" font-size="10.00">hub.fabric.pub :443</text>
<text xml:space="preserve" text-anchor="middle" x="1028.5" y="-777.5" font-family="Helvetica,sans-Serif" font-size="10.00">HTTPS / WSS (check upstream)</text>
</g>
<!-- http_local&#45;&gt;hub_https -->
<g id="edge9" class="edge">
<title>http_local&#45;&gt;hub_https</title>
<path fill="none" stroke="#1976d2" stroke-dasharray="5,2" d="M810.33,-837.49C849.01,-828.49 896.43,-817.47 937.08,-808.02"/>
<polygon fill="#1976d2" stroke="#1976d2" points="937.66,-811.48 946.61,-805.81 936.07,-804.66 937.66,-811.48"/>
<text xml:space="preserve" text-anchor="middle" x="880.5" y="-840.04" font-family="Helvetica,sans-Serif" font-size="9.00">same app,</text>
<text xml:space="preserve" text-anchor="middle" x="880.5" y="-830.29" font-family="Helvetica,sans-Serif" font-size="9.00">different origin</text>
</g>
<!-- hub_fabric -->
<g id="node10" class="node">
<title>hub_fabric</title>
<path fill="#64b5f6" stroke="black" d="M1107.38,-737C1107.38,-737 949.62,-737 949.62,-737 943.62,-737 937.62,-731 937.62,-725 937.62,-725 937.62,-713 937.62,-713 937.62,-707 943.62,-701 949.62,-701 949.62,-701 1107.38,-701 1107.38,-701 1113.38,-701 1119.38,-707 1119.38,-713 1119.38,-713 1119.38,-725 1119.38,-725 1119.38,-731 1113.38,-737 1107.38,-737"/>
<text xml:space="preserve" text-anchor="middle" x="1028.5" y="-720.75" font-family="Helvetica,sans-Serif" font-size="10.00">hub.fabric.pub :7777</text>
<text xml:space="preserve" text-anchor="middle" x="1028.5" y="-709.5" font-family="Helvetica,sans-Serif" font-size="10.00">Fabric TCP (WAN probe often closed)</text>
</g>
<!-- fabric_local&#45;&gt;hub_fabric -->
<g id="edge8" class="edge">
<title>fabric_local&#45;&gt;hub_fabric</title>
<path fill="none" stroke="#555555" stroke-dasharray="5,2" d="M780.7,-719C819.46,-719 876.48,-719 925.94,-719"/>
<polygon fill="#555555" stroke="#555555" points="925.84,-722.5 935.84,-719 925.84,-715.5 925.84,-722.5"/>
<text xml:space="preserve" text-anchor="middle" x="880.5" y="-720.2" font-family="Helvetica,sans-Serif" font-size="9.00">Add primary hub</text>
</g>
<!-- hub_btc_p2p -->
<g id="node11" class="node">
<title>hub_btc_p2p</title>
<path fill="#42a5f5" stroke="black" d="M1107.75,-600.88C1107.75,-600.88 949.25,-600.88 949.25,-600.88 943.25,-600.88 937.25,-594.88 937.25,-588.88 937.25,-588.88 937.25,-571.12 937.25,-571.12 937.25,-565.12 943.25,-559.12 949.25,-559.12 949.25,-559.12 1107.75,-559.12 1107.75,-559.12 1113.75,-559.12 1119.75,-565.12 1119.75,-571.12 1119.75,-571.12 1119.75,-588.88 1119.75,-588.88 1119.75,-594.88 1113.75,-600.88 1107.75,-600.88"/>
<text xml:space="preserve" text-anchor="middle" x="1028.5" y="-587.38" font-family="Helvetica,sans-Serif" font-size="10.00">hub.fabric.pub :18444</text>
<text xml:space="preserve" text-anchor="middle" x="1028.5" y="-576.12" font-family="Helvetica,sans-Serif" font-size="10.00">Bitcoin P2P playnet seed</text>
<text xml:space="preserve" text-anchor="middle" x="1028.5" y="-564.88" font-family="Helvetica,sans-Serif" font-size="10.00">FABRIC_BITCOIN_PLAYNET_PEER</text>
</g>
<!-- btc_p2p_local&#45;&gt;hub_btc_p2p -->
<g id="edge7" class="edge">
<title>btc_p2p_local&#45;&gt;hub_btc_p2p</title>
<path fill="none" stroke="#555555" stroke-dasharray="5,2" d="M790.36,-637.56C829.31,-628.11 882.5,-615.2 928.64,-604"/>
<polygon fill="#555555" stroke="#555555" points="929.22,-607.46 938.12,-601.7 927.57,-600.65 929.22,-607.46"/>
<text xml:space="preserve" text-anchor="middle" x="880.5" y="-625.15" font-family="Helvetica,sans-Serif" font-size="9.00">addnode / playnet</text>
</g>
<!-- hub_faucet -->
<g id="node12" class="node">
<title>hub_faucet</title>
<path fill="#2196f3" stroke="black" d="M1275.75,-737C1275.75,-737 1172.75,-737 1172.75,-737 1166.75,-737 1160.75,-731 1160.75,-725 1160.75,-725 1160.75,-713 1160.75,-713 1160.75,-707 1166.75,-701 1172.75,-701 1172.75,-701 1275.75,-701 1275.75,-701 1281.75,-701 1287.75,-707 1287.75,-713 1287.75,-713 1287.75,-725 1287.75,-725 1287.75,-731 1281.75,-737 1275.75,-737"/>
<text xml:space="preserve" text-anchor="middle" x="1224.25" y="-720.75" font-family="Helvetica,sans-Serif" font-size="10.00">…/services/bitcoin/faucet</text>
<text xml:space="preserve" text-anchor="middle" x="1224.25" y="-709.5" font-family="Helvetica,sans-Serif" font-size="10.00">(regtest, when up)</text>
</g>
<!-- hub_https&#45;&gt;hub_faucet -->
<g id="edge22" class="edge">
<title>hub_https&#45;&gt;hub_faucet</title>
<path fill="none" stroke="#555555" stroke-dasharray="1,5" d="M1082.19,-768.51C1106.21,-760.08 1134.85,-750.03 1160.02,-741.19"/>
<polygon fill="#555555" stroke="#555555" points="1160.87,-744.6 1169.15,-737.99 1158.55,-738 1160.87,-744.6"/>
</g>
<!-- hub_payjoin -->
<g id="node13" class="node">
<title>hub_payjoin</title>
<path fill="#1e88e5" stroke="black" d="M1261.88,-805C1261.88,-805 1186.62,-805 1186.62,-805 1180.62,-805 1174.62,-799 1174.62,-793 1174.62,-793 1174.62,-781 1174.62,-781 1174.62,-775 1180.62,-769 1186.62,-769 1186.62,-769 1261.88,-769 1261.88,-769 1267.88,-769 1273.88,-775 1273.88,-781 1273.88,-781 1273.88,-793 1273.88,-793 1273.88,-799 1267.88,-805 1261.88,-805"/>
<text xml:space="preserve" text-anchor="middle" x="1224.25" y="-788.75" font-family="Helvetica,sans-Serif" font-size="10.00">…/services/payjoin</text>
<text xml:space="preserve" text-anchor="middle" x="1224.25" y="-777.5" font-family="Helvetica,sans-Serif" font-size="10.00">Payjoin v2</text>
</g>
<!-- hub_https&#45;&gt;hub_payjoin -->
<g id="edge23" class="edge">
<title>hub_https&#45;&gt;hub_payjoin</title>
<path fill="none" stroke="#555555" stroke-dasharray="1,5" d="M1108.86,-787C1126.87,-787 1145.7,-787 1162.77,-787"/>
<polygon fill="#555555" stroke="#555555" points="1162.76,-790.5 1172.76,-787 1162.76,-783.5 1162.76,-790.5"/>
</g>
<!-- hub_http_alt -->
<g id="node9" class="node">
<title>hub_http_alt</title>
<path fill="#90caf9" stroke="black" d="M1065,-669C1065,-669 992,-669 992,-669 986,-669 980,-663 980,-657 980,-657 980,-645 980,-645 980,-639 986,-633 992,-633 992,-633 1065,-633 1065,-633 1071,-633 1077,-639 1077,-645 1077,-645 1077,-657 1077,-657 1077,-663 1071,-669 1065,-669"/>
<text xml:space="preserve" text-anchor="middle" x="1028.5" y="-653.5" font-family="Helvetica,sans-Serif" font-size="10.00">hub.fabric.pub :80</text>
<text xml:space="preserve" text-anchor="middle" x="1028.5" y="-642.25" font-family="Helvetica,sans-Serif" font-size="10.00">→ redirect HTTPS</text>
</g>
<!-- scan_stale -->
<g id="node14" class="node">
<title>scan_stale</title>
<polygon fill="#ffe0b2" stroke="black" points="179.38,-80.12 56.88,-80.12 56.88,-15.88 185.38,-15.88 185.38,-74.12 179.38,-80.12"/>
<polyline fill="none" stroke="black" points="179.38,-80.12 179.38,-74.12"/>
<polyline fill="none" stroke="black" points="185.38,-74.12 179.38,-74.12"/>
<text xml:space="preserve" text-anchor="middle" x="121.12" y="-66.62" font-family="Helvetica,sans-Serif" font-size="10.00">Point&#45;in&#45;time:</text>
<text xml:space="preserve" text-anchor="middle" x="121.12" y="-55.38" font-family="Helvetica,sans-Serif" font-size="10.00">ICMP/LAN answers differ</text>
<text xml:space="preserve" text-anchor="middle" x="121.12" y="-44.12" font-family="Helvetica,sans-Serif" font-size="10.00">by host &amp; sleep state.</text>
<text xml:space="preserve" text-anchor="middle" x="121.12" y="-32.88" font-family="Helvetica,sans-Serif" font-size="10.00">Re&#45;run header commands</text>
<text xml:space="preserve" text-anchor="middle" x="121.12" y="-21.62" font-family="Helvetica,sans-Serif" font-size="10.00">before trusting counts.</text>
</g>
<!-- v_main -->
<g id="node15" class="node">
<title>v_main</title>
<path fill="#ffccbc" stroke="black" d="M153.88,-176.12C153.88,-176.12 88.38,-176.12 88.38,-176.12 82.38,-176.12 76.38,-170.12 76.38,-164.12 76.38,-164.12 76.38,-123.88 76.38,-123.88 76.38,-117.88 82.38,-111.88 88.38,-111.88 88.38,-111.88 153.88,-111.88 153.88,-111.88 159.88,-111.88 165.88,-117.88 165.88,-123.88 165.88,-123.88 165.88,-164.12 165.88,-164.12 165.88,-170.12 159.88,-176.12 153.88,-176.12"/>
<text xml:space="preserve" text-anchor="middle" x="121.12" y="-162.62" font-family="Helvetica,sans-Serif" font-size="10.00">mainstay .2</text>
<text xml:space="preserve" text-anchor="middle" x="121.12" y="-151.38" font-family="Helvetica,sans-Serif" font-size="10.00">LAN nmap: 2 Up</text>
<text xml:space="preserve" text-anchor="middle" x="121.12" y="-140.12" font-family="Helvetica,sans-Serif" font-size="10.00">(.2 .192 only</text>
<text xml:space="preserve" text-anchor="middle" x="121.12" y="-128.88" font-family="Helvetica,sans-Serif" font-size="10.00">this pass)</text>
<text xml:space="preserve" text-anchor="middle" x="121.12" y="-117.62" font-family="Helvetica,sans-Serif" font-size="10.00">WG: .1 only</text>
</g>
<!-- lan_union -->
<g id="node18" class="node">
<title>lan_union</title>
<path fill="#ffcc80" stroke="black" d="M364.5,-176.12C364.5,-176.12 302.75,-176.12 302.75,-176.12 296.75,-176.12 290.75,-170.12 290.75,-164.12 290.75,-164.12 290.75,-123.88 290.75,-123.88 290.75,-117.88 296.75,-111.88 302.75,-111.88 302.75,-111.88 364.5,-111.88 364.5,-111.88 370.5,-111.88 376.5,-117.88 376.5,-123.88 376.5,-123.88 376.5,-164.12 376.5,-164.12 376.5,-170.12 370.5,-176.12 364.5,-176.12"/>
<text xml:space="preserve" text-anchor="middle" x="333.62" y="-162.62" font-family="Helvetica,sans-Serif" font-size="10.00">192.168.50.0/24</text>
<text xml:space="preserve" text-anchor="middle" x="333.62" y="-151.38" font-family="Helvetica,sans-Serif" font-size="10.00">union (this run)</text>
<text xml:space="preserve" text-anchor="middle" x="333.62" y="-140.12" font-family="Helvetica,sans-Serif" font-size="10.00">.1 .2 .5 .50 .75</text>
<text xml:space="preserve" text-anchor="middle" x="333.62" y="-128.88" font-family="Helvetica,sans-Serif" font-size="10.00">.128 .133 .153</text>
<text xml:space="preserve" text-anchor="middle" x="333.62" y="-117.62" font-family="Helvetica,sans-Serif" font-size="10.00">.168 .192 .233</text>
</g>
<!-- v_main&#45;&gt;lan_union -->
<g id="edge12" class="edge">
<title>v_main&#45;&gt;lan_union</title>
<path fill="none" stroke="#555555" stroke-dasharray="1,5" d="M166.25,-144C199.07,-144 244.02,-144 278.93,-144"/>
<polygon fill="#555555" stroke="#555555" points="278.84,-147.5 288.84,-144 278.84,-140.5 278.84,-147.5"/>
<text xml:space="preserve" text-anchor="middle" x="267" y="-145.2" font-family="Helvetica,sans-Serif" font-size="9.00">.2</text>
</g>
<!-- v_md -->
<g id="node16" class="node">
<title>v_md</title>
<path fill="#c8e6c9" stroke="black" d="M151.25,-283.75C151.25,-283.75 91,-283.75 91,-283.75 85,-283.75 79,-277.75 79,-271.75 79,-271.75 79,-220.25 79,-220.25 79,-214.25 85,-208.25 91,-208.25 91,-208.25 151.25,-208.25 151.25,-208.25 157.25,-208.25 163.25,-214.25 163.25,-220.25 163.25,-220.25 163.25,-271.75 163.25,-271.75 163.25,-277.75 157.25,-283.75 151.25,-283.75"/>
<text xml:space="preserve" text-anchor="middle" x="121.12" y="-270.25" font-family="Helvetica,sans-Serif" font-size="10.00">martindale .5</text>
<text xml:space="preserve" text-anchor="middle" x="121.12" y="-259" font-family="Helvetica,sans-Serif" font-size="10.00">LAN: 9 Up</text>
<text xml:space="preserve" text-anchor="middle" x="121.12" y="-247.75" font-family="Helvetica,sans-Serif" font-size="10.00">(no .2/.153/.237</text>
<text xml:space="preserve" text-anchor="middle" x="121.12" y="-236.5" font-family="Helvetica,sans-Serif" font-size="10.00">this pass)</text>
<text xml:space="preserve" text-anchor="middle" x="121.12" y="-225.25" font-family="Helvetica,sans-Serif" font-size="10.00">WG: .1 .5 .21</text>
<text xml:space="preserve" text-anchor="middle" x="121.12" y="-214" font-family="Helvetica,sans-Serif" font-size="10.00">.50 .59</text>
</g>
<!-- v_md&#45;&gt;lan_union -->
<g id="edge13" class="edge">
<title>v_md&#45;&gt;lan_union</title>
<path fill="none" stroke="#555555" stroke-dasharray="1,5" d="M163.47,-227.57C198.56,-211.92 243.25,-192 243.25,-192 243.25,-192 260.77,-182.59 280.3,-172.1"/>
<polygon fill="#555555" stroke="#555555" points="281.81,-175.27 288.96,-167.45 278.49,-169.1 281.81,-175.27"/>
</g>
<!-- wg_martindale -->
<g id="node19" class="node">
<title>wg_martindale</title>
<path fill="#ffab91" stroke="black" d="M782.88,-209.75C782.88,-209.75 685.12,-209.75 685.12,-209.75 679.12,-209.75 673.12,-203.75 673.12,-197.75 673.12,-197.75 673.12,-146.25 673.12,-146.25 673.12,-140.25 679.12,-134.25 685.12,-134.25 685.12,-134.25 782.88,-134.25 782.88,-134.25 788.88,-134.25 794.88,-140.25 794.88,-146.25 794.88,-146.25 794.88,-197.75 794.88,-197.75 794.88,-203.75 788.88,-209.75 782.88,-209.75"/>
<text xml:space="preserve" text-anchor="middle" x="734" y="-196.25" font-family="Helvetica,sans-Serif" font-size="10.00">10.8.0.0/24</text>
<text xml:space="preserve" text-anchor="middle" x="734" y="-185" font-family="Helvetica,sans-Serif" font-size="10.00">(martindale WG chunks)</text>
<text xml:space="preserve" text-anchor="middle" x="734" y="-173.75" font-family="Helvetica,sans-Serif" font-size="10.00">Up: .1 .5 .21</text>
<text xml:space="preserve" text-anchor="middle" x="734" y="-162.5" font-family="Helvetica,sans-Serif" font-size="10.00">.50 .59</text>
<text xml:space="preserve" text-anchor="middle" x="734" y="-151.25" font-family="Helvetica,sans-Serif" font-size="10.00">+ .2 mainstay</text>
<text xml:space="preserve" text-anchor="middle" x="734" y="-140" font-family="Helvetica,sans-Serif" font-size="10.00">on utun (Mac)</text>
</g>
<!-- v_md&#45;&gt;wg_martindale -->
<g id="edge15" class="edge">
<title>v_md&#45;&gt;wg_martindale</title>
<path fill="none" stroke="#555555" stroke-dasharray="1,5" d="M163.57,-241.02C274.76,-227.65 571.25,-192 571.25,-192 571.25,-192 618.24,-186.19 661.57,-180.83"/>
<polygon fill="#555555" stroke="#555555" points="661.77,-184.33 671.27,-179.63 660.91,-177.39 661.77,-184.33"/>
</g>
<!-- v_hoot -->
<g id="node17" class="node">
<title>v_hoot</title>
<path fill="#b3e5fc" stroke="black" d="M546.88,-176.12C546.88,-176.12 468.62,-176.12 468.62,-176.12 462.62,-176.12 456.62,-170.12 456.62,-164.12 456.62,-164.12 456.62,-123.88 456.62,-123.88 456.62,-117.88 462.62,-111.88 468.62,-111.88 468.62,-111.88 546.88,-111.88 546.88,-111.88 552.88,-111.88 558.88,-117.88 558.88,-123.88 558.88,-123.88 558.88,-164.12 558.88,-164.12 558.88,-170.12 552.88,-176.12 546.88,-176.12"/>
<text xml:space="preserve" text-anchor="middle" x="507.75" y="-162.62" font-family="Helvetica,sans-Serif" font-size="10.00">hoot .50</text>
<text xml:space="preserve" text-anchor="middle" x="507.75" y="-151.38" font-family="Helvetica,sans-Serif" font-size="10.00">LAN: 10 Up</text>
<text xml:space="preserve" text-anchor="middle" x="507.75" y="-140.12" font-family="Helvetica,sans-Serif" font-size="10.00">(incl. .153)</text>
<text xml:space="preserve" text-anchor="middle" x="507.75" y="-128.88" font-family="Helvetica,sans-Serif" font-size="10.00">WG nmap: .1 .5</text>
<text xml:space="preserve" text-anchor="middle" x="507.75" y="-117.62" font-family="Helvetica,sans-Serif" font-size="10.00">eth0 192.168.1.1/24</text>
</g>
<!-- v_hoot&#45;&gt;lan_union -->
<g id="edge14" class="edge">
<title>v_hoot&#45;&gt;lan_union</title>
<path fill="none" stroke="#555555" stroke-dasharray="1,5" d="M456.38,-124.46C439.21,-117.8 424.25,-112 424.25,-112 424.25,-112 396.5,-112 396.5,-112 396.5,-112 392.75,-113.94 387.1,-116.86"/>
<polygon fill="#555555" stroke="#555555" points="385.54,-113.73 378.27,-121.43 388.76,-119.94 385.54,-113.73"/>
</g>
<!-- v_hoot&#45;&gt;wg_martindale -->
<g id="edge16" class="edge">
<title>v_hoot&#45;&gt;wg_martindale</title>
<path fill="none" stroke="#555555" stroke-dasharray="5,2" d="M559.12,-138.05C576.29,-136.02 591.25,-134.25 591.25,-134.25 591.25,-134.25 624.25,-134.25 624.25,-134.25 624.25,-134.25 641.45,-140.22 662.16,-147.41"/>
<polygon fill="#555555" stroke="#555555" points="660.87,-150.67 671.47,-150.64 663.17,-144.06 660.87,-150.67"/>
<text xml:space="preserve" text-anchor="middle" x="607.75" y="-135.45" font-family="Helvetica,sans-Serif" font-size="9.00">hub WG</text>
</g>
<!-- lan_union&#45;&gt;v_hoot -->
<g id="edge17" class="edge">
<title>lan_union&#45;&gt;v_hoot</title>
<path fill="none" stroke="#555555" stroke-dasharray="5,2" d="M376.73,-144C397.25,-144 422.33,-144 444.96,-144"/>
<polygon fill="#555555" stroke="#555555" points="444.68,-147.5 454.68,-144 444.68,-140.5 444.68,-147.5"/>
<text xml:space="preserve" text-anchor="middle" x="410.38" y="-145.2" font-family="Helvetica,sans-Serif" font-size="9.00">.50</text>
</g>
<!-- fabric_lan -->
<g id="node20" class="node">
<title>fabric_lan</title>
<path fill="#d1c4e9" stroke="black" d="M559.25,-79.5C559.25,-79.5 456.25,-79.5 456.25,-79.5 450.25,-79.5 444.25,-73.5 444.25,-67.5 444.25,-67.5 444.25,-38.5 444.25,-38.5 444.25,-32.5 450.25,-26.5 456.25,-26.5 456.25,-26.5 559.25,-26.5 559.25,-26.5 565.25,-26.5 571.25,-32.5 571.25,-38.5 571.25,-38.5 571.25,-67.5 571.25,-67.5 571.25,-73.5 565.25,-79.5 559.25,-79.5"/>
<text xml:space="preserve" text-anchor="middle" x="507.75" y="-66" font-family="Helvetica,sans-Serif" font-size="10.00">Fabric HTTP (prior probe)</text>
<text xml:space="preserve" text-anchor="middle" x="507.75" y="-54.75" font-family="Helvetica,sans-Serif" font-size="10.00">192.168.50.2:8080</text>
<text xml:space="preserve" text-anchor="middle" x="507.75" y="-43.5" font-family="Helvetica,sans-Serif" font-size="10.00">192.168.50.192:8080</text>
<text xml:space="preserve" text-anchor="middle" x="507.75" y="-32.25" font-family="Helvetica,sans-Serif" font-size="10.00">@fabric/http</text>
</g>
<!-- lan_union&#45;&gt;fabric_lan -->
<g id="edge20" class="edge">
<title>lan_union&#45;&gt;fabric_lan</title>
<path fill="none" stroke="#555555" stroke-dasharray="1,5" d="M374.86,-111.65C386.68,-102.15 396.5,-94.25 396.5,-94.25 396.5,-94.25 413.07,-88.05 433.36,-80.46"/>
<polygon fill="#555555" stroke="#555555" points="434.34,-83.83 442.48,-77.05 431.89,-77.27 434.34,-83.83"/>
<text xml:space="preserve" text-anchor="middle" x="410.38" y="-95.45" font-family="Helvetica,sans-Serif" font-size="9.00">.2/.192</text>
</g>
<!-- lan_martindale -->
<g id="node22" class="node">
<title>lan_martindale</title>
<path fill="#ffb74d" stroke="black" d="M549.5,-283.88C549.5,-283.88 466,-283.88 466,-283.88 460,-283.88 454,-277.88 454,-271.88 454,-271.88 454,-254.12 454,-254.12 454,-248.12 460,-242.12 466,-242.12 466,-242.12 549.5,-242.12 549.5,-242.12 555.5,-242.12 561.5,-248.12 561.5,-254.12 561.5,-254.12 561.5,-271.88 561.5,-271.88 561.5,-277.88 555.5,-283.88 549.5,-283.88"/>
<text xml:space="preserve" text-anchor="middle" x="507.75" y="-270.38" font-family="Helvetica,sans-Serif" font-size="10.00">192.168.50.5</text>
<text xml:space="preserve" text-anchor="middle" x="507.75" y="-259.12" font-family="Helvetica,sans-Serif" font-size="10.00">Munin master · Gitea</text>
<text xml:space="preserve" text-anchor="middle" x="507.75" y="-247.88" font-family="Helvetica,sans-Serif" font-size="10.00">Fabric :7777 · btc</text>
</g>
<!-- lan_union&#45;&gt;lan_martindale -->
<g id="edge18" class="edge">
<title>lan_union&#45;&gt;lan_martindale</title>
<path fill="none" stroke="#555555" stroke-dasharray="5,2" d="M376.73,-173.11C404.15,-192.07 439.71,-216.65 466.71,-235.32"/>
<polygon fill="#555555" stroke="#555555" points="464.41,-237.99 474.63,-240.79 468.39,-232.23 464.41,-237.99"/>
<text xml:space="preserve" text-anchor="middle" x="410.38" y="-204.7" font-family="Helvetica,sans-Serif" font-size="9.00">.5</text>
</g>
<!-- wg_martindale&#45;&gt;v_hoot -->
<g id="edge19" class="edge">
<title>wg_martindale&#45;&gt;v_hoot</title>
<path fill="none" stroke="#555555" stroke-dasharray="5,2" d="M673.03,-164.51C641.42,-160.57 602.69,-155.73 570.78,-151.74"/>
<polygon fill="#555555" stroke="#555555" points="571.21,-148.27 560.86,-150.51 570.35,-155.22 571.21,-148.27"/>
<text xml:space="preserve" text-anchor="middle" x="607.75" y="-159.2" font-family="Helvetica,sans-Serif" font-size="9.00">.1</text>
</g>
<!-- md_docker -->
<g id="node21" class="node">
<title>md_docker</title>
<path fill="#ffe082" stroke="black" d="M771.62,-283.88C771.62,-283.88 696.38,-283.88 696.38,-283.88 690.38,-283.88 684.38,-277.88 684.38,-271.88 684.38,-271.88 684.38,-254.12 684.38,-254.12 684.38,-248.12 690.38,-242.12 696.38,-242.12 696.38,-242.12 771.62,-242.12 771.62,-242.12 777.62,-242.12 783.62,-248.12 783.62,-254.12 783.62,-254.12 783.62,-271.88 783.62,-271.88 783.62,-277.88 777.62,-283.88 771.62,-283.88"/>
<text xml:space="preserve" text-anchor="middle" x="734" y="-270.38" font-family="Helvetica,sans-Serif" font-size="10.00">martindale</text>
<text xml:space="preserve" text-anchor="middle" x="734" y="-259.12" font-family="Helvetica,sans-Serif" font-size="10.00">docker0 172.17.0.1</text>
<text xml:space="preserve" text-anchor="middle" x="734" y="-247.88" font-family="Helvetica,sans-Serif" font-size="10.00">container .2</text>
</g>
<!-- lan_martindale&#45;&gt;md_docker -->
<g id="edge21" class="edge">
<title>lan_martindale&#45;&gt;md_docker</title>
<path fill="none" stroke="#555555" stroke-dasharray="1,5" d="M561.89,-263C595.17,-263 638.15,-263 672.7,-263"/>
<polygon fill="#555555" stroke="#555555" points="672.56,-266.5 682.56,-263 672.56,-259.5 672.56,-266.5"/>
</g>
<!-- lan_hub -->
<g id="node25" class="node">
<title>lan_hub</title>
<path fill="#ffca28" stroke="black" d="M778,-435C778,-435 690,-435 690,-435 684,-435 678,-429 678,-423 678,-423 678,-411 678,-411 678,-405 684,-399 690,-399 690,-399 778,-399 778,-399 784,-399 790,-405 790,-411 790,-411 790,-423 790,-423 790,-429 784,-435 778,-435"/>
<text xml:space="preserve" text-anchor="middle" x="734" y="-418.75" font-family="Helvetica,sans-Serif" font-size="10.00">192.168.50.5</text>
<text xml:space="preserve" text-anchor="middle" x="734" y="-407.5" font-family="Helvetica,sans-Serif" font-size="10.00">HTTP / Gitea / deploy</text>
</g>
<!-- lan_martindale&#45;&gt;lan_hub -->
<g id="edge11" class="edge">
<title>lan_martindale&#45;&gt;lan_hub</title>
<path fill="none" stroke="#555555" stroke-dasharray="1,5" d="M531.25,-284.18C567.85,-318.63 636.25,-383 636.25,-383 636.25,-383 651.37,-388.31 669.65,-394.74"/>
<polygon fill="#555555" stroke="#555555" points="668.36,-397.99 678.95,-398.01 670.68,-391.39 668.36,-397.99"/>
</g>
<!-- lan_core -->
<g id="node23" class="node">
<title>lan_core</title>
<path fill="#ffe082" stroke="black" d="M1077.38,-437.88C1077.38,-437.88 979.62,-437.88 979.62,-437.88 973.62,-437.88 967.62,-431.88 967.62,-425.88 967.62,-425.88 967.62,-408.12 967.62,-408.12 967.62,-402.12 973.62,-396.12 979.62,-396.12 979.62,-396.12 1077.38,-396.12 1077.38,-396.12 1083.38,-396.12 1089.38,-402.12 1089.38,-408.12 1089.38,-408.12 1089.38,-425.88 1089.38,-425.88 1089.38,-431.88 1083.38,-437.88 1077.38,-437.88"/>
<text xml:space="preserve" text-anchor="middle" x="1028.5" y="-424.38" font-family="Helvetica,sans-Serif" font-size="10.00">192.168.50.5</text>
<text xml:space="preserve" text-anchor="middle" x="1028.5" y="-413.12" font-family="Helvetica,sans-Serif" font-size="10.00">Bitcoin Core RPC :8332</text>
<text xml:space="preserve" text-anchor="middle" x="1028.5" y="-401.88" font-family="Helvetica,sans-Serif" font-size="10.00">(mainnet smoke)</text>
</g>
<!-- lan_cln -->
<g id="node24" class="node">
<title>lan_cln</title>
<path fill="#ffd54f" stroke="black" d="M771.62,-367C771.62,-367 696.38,-367 696.38,-367 690.38,-367 684.38,-361 684.38,-355 684.38,-355 684.38,-343 684.38,-343 684.38,-337 690.38,-331 696.38,-331 696.38,-331 771.62,-331 771.62,-331 777.62,-331 783.62,-337 783.62,-343 783.62,-343 783.62,-355 783.62,-355 783.62,-361 777.62,-367 771.62,-367"/>
<text xml:space="preserve" text-anchor="middle" x="734" y="-350.75" font-family="Helvetica,sans-Serif" font-size="10.00">192.168.50.5 :9735</text>
<text xml:space="preserve" text-anchor="middle" x="734" y="-339.5" font-family="Helvetica,sans-Serif" font-size="10.00">CLN example</text>
</g>
<!-- lan_hub&#45;&gt;lan_core -->
<g id="edge10" class="edge">
<title>lan_hub&#45;&gt;lan_core</title>
<path fill="none" stroke="#555555" stroke-dasharray="1,5" d="M790.36,-417C837.32,-417 905,-417 956.05,-417"/>
<polygon fill="#555555" stroke="#555555" points="955.81,-420.5 965.81,-417 955.81,-413.5 955.81,-420.5"/>
<text xml:space="preserve" text-anchor="middle" x="880.5" y="-418.2" font-family="Helvetica,sans-Serif" font-size="9.00">same host</text>
</g>
<!-- lan_btc_p2p -->
<g id="node26" class="node">
<title>lan_btc_p2p</title>
<path fill="#ffc107" stroke="black" d="M774.25,-503C774.25,-503 693.75,-503 693.75,-503 687.75,-503 681.75,-497 681.75,-491 681.75,-491 681.75,-479 681.75,-479 681.75,-473 687.75,-467 693.75,-467 693.75,-467 774.25,-467 774.25,-467 780.25,-467 786.25,-473 786.25,-479 786.25,-479 786.25,-491 786.25,-491 786.25,-497 780.25,-503 774.25,-503"/>
<text xml:space="preserve" text-anchor="middle" x="734" y="-486.75" font-family="Helvetica,sans-Serif" font-size="10.00">192.168.50.5 :18444</text>
<text xml:space="preserve" text-anchor="middle" x="734" y="-475.5" font-family="Helvetica,sans-Serif" font-size="10.00">Bitcoin P2P playnet</text>
</g>
<!-- lan_btc_p2p&#45;&gt;hub_btc_p2p -->
<g id="edge24" class="edge">
<title>lan_btc_p2p&#45;&gt;hub_btc_p2p</title>
<path fill="none" stroke="#555555" stroke-dasharray="5,2" d="M786.74,-498.41C840.62,-512.38 917.25,-532.25 917.25,-532.25 917.25,-532.25 929.25,-542 929.25,-542 929.25,-542 943.99,-547.7 962.04,-554.68"/>
<polygon fill="#555555" stroke="#555555" points="960.34,-557.78 970.93,-558.12 962.87,-551.25 960.34,-557.78"/>
<text xml:space="preserve" text-anchor="middle" x="880.5" y="-533.45" font-family="Helvetica,sans-Serif" font-size="9.00">playnet mesh</text>
</g>
<!-- ph_explorer -->
<g id="node27" class="node">
<title>ph_explorer</title>
<path fill="#f48fb1" stroke="black" d="M156.88,-620C156.88,-620 85.38,-620 85.38,-620 79.38,-620 73.38,-614 73.38,-608 73.38,-608 73.38,-596 73.38,-596 73.38,-590 79.38,-584 85.38,-584 85.38,-584 156.88,-584 156.88,-584 162.88,-584 168.88,-590 168.88,-596 168.88,-596 168.88,-608 168.88,-608 168.88,-614 162.88,-620 156.88,-620"/>
<text xml:space="preserve" text-anchor="middle" x="121.12" y="-598.12" font-family="Helvetica,sans-Serif" font-size="10.00">explorer.fabric.pub</text>
</g>
<!-- ph_payments -->
<g id="node28" class="node">
<title>ph_payments</title>
<path fill="#f06292" stroke="black" d="M161.38,-688C161.38,-688 80.88,-688 80.88,-688 74.88,-688 68.88,-682 68.88,-676 68.88,-676 68.88,-664 68.88,-664 68.88,-658 74.88,-652 80.88,-652 80.88,-652 161.38,-652 161.38,-652 167.38,-652 173.38,-658 173.38,-664 173.38,-664 173.38,-676 173.38,-676 173.38,-682 167.38,-688 161.38,-688"/>
<text xml:space="preserve" text-anchor="middle" x="121.12" y="-666.12" font-family="Helvetica,sans-Serif" font-size="10.00">payments.fabric.pub</text>
</g>
<!-- ph_lightning -->
<g id="node29" class="node">
<title>ph_lightning</title>
<path fill="#ec407a" stroke="black" d="M158,-756C158,-756 84.25,-756 84.25,-756 78.25,-756 72.25,-750 72.25,-744 72.25,-744 72.25,-732 72.25,-732 72.25,-726 78.25,-720 84.25,-720 84.25,-720 158,-720 158,-720 164,-720 170,-726 170,-732 170,-732 170,-744 170,-744 170,-750 164,-756 158,-756"/>
<text xml:space="preserve" text-anchor="middle" x="121.12" y="-734.12" font-family="Helvetica,sans-Serif" font-size="10.00">lightning.fabric.pub</text>
</g>
<!-- github_repo -->
<g id="node30" class="node">
<title>github_repo</title>
<path fill="#eeeeee" stroke="black" d="M811.75,-586C811.75,-586 656.25,-586 656.25,-586 650.25,-586 644.25,-580 644.25,-574 644.25,-574 644.25,-562 644.25,-562 644.25,-556 650.25,-550 656.25,-550 656.25,-550 811.75,-550 811.75,-550 817.75,-550 823.75,-556 823.75,-562 823.75,-562 823.75,-574 823.75,-574 823.75,-580 817.75,-586 811.75,-586"/>
<text xml:space="preserve" text-anchor="middle" x="734" y="-564.12" font-family="Helvetica,sans-Serif" font-size="10.00">github.com/FabricLabs/hub.fabric.pub</text>
</g>
<!-- github_repo&#45;&gt;hub_https -->
<g id="edge25" class="edge">
<title>github_repo&#45;&gt;hub_https</title>
<path fill="none" stroke="#555555" stroke-dasharray="1,5" d="M823.99,-578.38C870.25,-583.77 917.25,-589.25 917.25,-589.25 917.25,-589.25 929.25,-753 929.25,-753 929.25,-753 944.75,-758.36 963.43,-764.83"/>
<polygon fill="#555555" stroke="#555555" points="962.04,-768.05 972.63,-768.01 964.33,-761.43 962.04,-768.05"/>
<text xml:space="preserve" text-anchor="middle" x="880.5" y="-590.45" font-family="Helvetica,sans-Serif" font-size="9.00">deploy</text>
</g>
</g>
</svg>
